<svg xmlns="http://www.w3.org/2000/svg" xmlns:xlink="http://www.w3.org/1999/xlink" width="500" zoomAndPan="magnify" viewBox="0 0 375 374.999991" height="500" preserveAspectRatio="xMidYMid meet" version="1.0"><defs><g/><clipPath id="0b0d7cb44f"><path d="M 127.585938 156 L 185 156 L 185 179.332031 L 127.585938 179.332031 Z M 127.585938 156 " clip-rule="nonzero"/></clipPath><clipPath id="d4d162213c"><path d="M 161 144.082031 L 187 144.082031 L 187 171 L 161 171 Z M 161 144.082031 " clip-rule="nonzero"/></clipPath><clipPath id="4d2f9e6aab"><path d="M 190 156 L 247.585938 156 L 247.585938 179.332031 L 190 179.332031 Z M 190 156 " clip-rule="nonzero"/></clipPath><clipPath id="7571c399d5"><path d="M 188 144.082031 L 214 144.082031 L 214 171 L 188 171 Z M 188 144.082031 " clip-rule="nonzero"/></clipPath></defs><g clip-path="url(#0b0d7cb44f)"><path fill="#ffffff" d="M 127.722656 156.832031 L 139.324219 179.578125 L 132.660156 161.460938 C 132.660156 161.460938 168.875 164.503906 184.667969 179.578125 C 184.667969 179.578125 178.867188 161.914062 127.722656 156.832031 Z M 127.722656 156.832031 " fill-opacity="1" fill-rule="nonzero"/></g><path fill="#ffffff" d="M 146.34375 148.492188 L 146.34375 156.832031 C 172.324219 160.164062 186.660156 175.027344 186.660156 175.027344 C 176.183594 156.546875 146.34375 148.492188 146.34375 148.492188 Z M 146.34375 148.492188 " fill-opacity="1" fill-rule="nonzero"/><g clip-path="url(#d4d162213c)"><path fill="#ffffff" d="M 161.613281 144.082031 L 161.613281 151.464844 C 178.125 158.128906 186.632812 170.589844 186.632812 170.589844 C 180.808594 153.359375 161.613281 144.082031 161.613281 144.082031 Z M 161.613281 144.082031 " fill-opacity="1" fill-rule="nonzero"/></g><g clip-path="url(#4d2f9e6aab)"><path fill="#ffffff" d="M 247.273438 156.832031 C 196.125 161.914062 190.324219 179.578125 190.324219 179.578125 C 206.121094 164.503906 242.335938 161.460938 242.335938 161.460938 L 235.671875 179.578125 Z M 247.273438 156.832031 " fill-opacity="1" fill-rule="nonzero"/></g><path fill="#ffffff" d="M 228.675781 148.492188 C 228.675781 148.492188 198.835938 156.523438 188.359375 175 C 188.359375 175 202.691406 160.140625 228.675781 156.808594 Z M 228.675781 148.492188 " fill-opacity="1" fill-rule="nonzero"/><g clip-path="url(#7571c399d5)"><path fill="#ffffff" d="M 213.382812 151.464844 L 213.382812 144.082031 C 213.382812 144.082031 194.183594 153.359375 188.359375 170.589844 C 188.359375 170.589844 196.867188 158.128906 213.382812 151.464844 Z M 213.382812 151.464844 " fill-opacity="1" fill-rule="nonzero"/></g><g fill="#ffffff" fill-opacity="1"><g transform="translate(105.039418, 214.795323)"><g><path d="M 1.125 0 L 1.125 -1.125 C 1.894531 -1.144531 2.507812 -1.203125 2.96875 -1.296875 C 3.4375 -1.398438 3.789062 -1.566406 4.03125 -1.796875 C 4.28125 -2.035156 4.445312 -2.367188 4.53125 -2.796875 C 4.625 -3.234375 4.671875 -3.800781 4.671875 -4.5 L 4.671875 -18.28125 C 4.671875 -18.96875 4.632812 -19.523438 4.5625 -19.953125 C 4.5 -20.378906 4.363281 -20.710938 4.15625 -20.953125 C 3.945312 -21.203125 3.644531 -21.367188 3.25 -21.453125 C 2.851562 -21.546875 2.34375 -21.613281 1.71875 -21.65625 L 1.71875 -22.78125 L 10.5625 -22.78125 C 13.21875 -22.78125 15.285156 -22.304688 16.765625 -21.359375 C 18.242188 -20.410156 18.984375 -19.078125 18.984375 -17.359375 C 18.984375 -16.054688 18.570312 -14.988281 17.75 -14.15625 C 16.9375 -13.332031 15.644531 -12.65625 13.875 -12.125 L 13.875 -12.015625 C 14.488281 -11.953125 15.019531 -11.878906 15.46875 -11.796875 C 15.925781 -11.722656 16.332031 -11.628906 16.6875 -11.515625 C 17.039062 -11.410156 17.367188 -11.28125 17.671875 -11.125 C 17.972656 -10.96875 18.273438 -10.789062 18.578125 -10.59375 C 20.328125 -9.34375 21.203125 -7.785156 21.203125 -5.921875 C 21.203125 -4.867188 20.910156 -3.894531 20.328125 -3 C 19.753906 -2.101562 18.941406 -1.398438 17.890625 -0.890625 C 17.554688 -0.710938 17.210938 -0.566406 16.859375 -0.453125 C 16.503906 -0.347656 16.085938 -0.257812 15.609375 -0.1875 C 15.140625 -0.125 14.59375 -0.078125 13.96875 -0.046875 C 13.351562 -0.015625 12.617188 0 11.765625 0 Z M 11.859375 -1.265625 C 15.429688 -1.265625 17.21875 -2.796875 17.21875 -5.859375 C 17.21875 -8.085938 16.300781 -9.644531 14.46875 -10.53125 C 14.144531 -10.664062 13.835938 -10.78125 13.546875 -10.875 C 13.253906 -10.976562 12.910156 -11.054688 12.515625 -11.109375 C 12.117188 -11.160156 11.648438 -11.191406 11.109375 -11.203125 C 10.566406 -11.222656 9.898438 -11.234375 9.109375 -11.234375 L 7.78125 -11.234375 L 7.78125 -4.640625 C 7.78125 -3.441406 8.09375 -2.578125 8.71875 -2.046875 C 9.351562 -1.523438 10.398438 -1.265625 11.859375 -1.265625 Z M 9.4375 -12.71875 C 10.050781 -12.71875 10.5625 -12.726562 10.96875 -12.75 C 11.382812 -12.769531 11.738281 -12.800781 12.03125 -12.84375 C 12.332031 -12.894531 12.59375 -12.960938 12.8125 -13.046875 C 13.039062 -13.140625 13.273438 -13.265625 13.515625 -13.421875 C 14.148438 -13.816406 14.597656 -14.289062 14.859375 -14.84375 C 15.128906 -15.394531 15.265625 -16.113281 15.265625 -17 C 15.265625 -18.5625 14.882812 -19.679688 14.125 -20.359375 C 13.363281 -21.046875 12.175781 -21.390625 10.5625 -21.390625 L 8.28125 -21.390625 C 7.945312 -21.390625 7.78125 -21.21875 7.78125 -20.875 L 7.78125 -12.71875 Z M 9.4375 -12.71875 "/></g></g></g><g fill="#ffffff" fill-opacity="1"><g transform="translate(130.741398, 214.795323)"><g><path d="M 13.984375 -23.078125 C 15.722656 -23.078125 17.34375 -22.769531 18.84375 -22.15625 C 20.34375 -21.539062 21.644531 -20.703125 22.75 -19.640625 C 23.851562 -18.578125 24.71875 -17.320312 25.34375 -15.875 C 25.976562 -14.4375 26.296875 -12.878906 26.296875 -11.203125 C 26.296875 -9.609375 25.972656 -8.109375 25.328125 -6.703125 C 24.691406 -5.304688 23.820312 -4.09375 22.71875 -3.0625 C 21.613281 -2.03125 20.3125 -1.210938 18.8125 -0.609375 C 17.3125 -0.00390625 15.703125 0.296875 13.984375 0.296875 C 12.273438 0.296875 10.671875 -0.00390625 9.171875 -0.609375 C 7.671875 -1.210938 6.367188 -2.03125 5.265625 -3.0625 C 4.160156 -4.09375 3.285156 -5.304688 2.640625 -6.703125 C 2.003906 -8.109375 1.6875 -9.609375 1.6875 -11.203125 C 1.6875 -12.878906 2 -14.4375 2.625 -15.875 C 3.257812 -17.320312 4.128906 -18.578125 5.234375 -19.640625 C 6.335938 -20.703125 7.640625 -21.539062 9.140625 -22.15625 C 10.640625 -22.769531 12.253906 -23.078125 13.984375 -23.078125 Z M 13.984375 -1.328125 C 15.285156 -1.328125 16.453125 -1.550781 17.484375 -2 C 18.523438 -2.457031 19.414062 -3.109375 20.15625 -3.953125 C 20.894531 -4.804688 21.460938 -5.835938 21.859375 -7.046875 C 22.253906 -8.265625 22.453125 -9.625 22.453125 -11.125 C 22.453125 -12.695312 22.253906 -14.117188 21.859375 -15.390625 C 21.460938 -16.660156 20.898438 -17.742188 20.171875 -18.640625 C 19.441406 -19.546875 18.550781 -20.238281 17.5 -20.71875 C 16.457031 -21.195312 15.285156 -21.4375 13.984375 -21.4375 C 12.679688 -21.4375 11.507812 -21.195312 10.46875 -20.71875 C 9.425781 -20.238281 8.539062 -19.546875 7.8125 -18.640625 C 7.082031 -17.742188 6.519531 -16.660156 6.125 -15.390625 C 5.726562 -14.117188 5.53125 -12.695312 5.53125 -11.125 C 5.53125 -9.625 5.726562 -8.265625 6.125 -7.046875 C 6.519531 -5.835938 7.082031 -4.804688 7.8125 -3.953125 C 8.539062 -3.109375 9.425781 -2.457031 10.46875 -2 C 11.507812 -1.550781 12.679688 -1.328125 13.984375 -1.328125 Z M 13.984375 -1.328125 "/></g></g></g><g fill="#ffffff" fill-opacity="1"><g transform="translate(161.737456, 214.795323)"><g><path d="M 13.984375 -23.078125 C 15.722656 -23.078125 17.34375 -22.769531 18.84375 -22.15625 C 20.34375 -21.539062 21.644531 -20.703125 22.75 -19.640625 C 23.851562 -18.578125 24.71875 -17.320312 25.34375 -15.875 C 25.976562 -14.4375 26.296875 -12.878906 26.296875 -11.203125 C 26.296875 -9.609375 25.972656 -8.109375 25.328125 -6.703125 C 24.691406 -5.304688 23.820312 -4.09375 22.71875 -3.0625 C 21.613281 -2.03125 20.3125 -1.210938 18.8125 -0.609375 C 17.3125 -0.00390625 15.703125 0.296875 13.984375 0.296875 C 12.273438 0.296875 10.671875 -0.00390625 9.171875 -0.609375 C 7.671875 -1.210938 6.367188 -2.03125 5.265625 -3.0625 C 4.160156 -4.09375 3.285156 -5.304688 2.640625 -6.703125 C 2.003906 -8.109375 1.6875 -9.609375 1.6875 -11.203125 C 1.6875 -12.878906 2 -14.4375 2.625 -15.875 C 3.257812 -17.320312 4.128906 -18.578125 5.234375 -19.640625 C 6.335938 -20.703125 7.640625 -21.539062 9.140625 -22.15625 C 10.640625 -22.769531 12.253906 -23.078125 13.984375 -23.078125 Z M 13.984375 -1.328125 C 15.285156 -1.328125 16.453125 -1.550781 17.484375 -2 C 18.523438 -2.457031 19.414062 -3.109375 20.15625 -3.953125 C 20.894531 -4.804688 21.460938 -5.835938 21.859375 -7.046875 C 22.253906 -8.265625 22.453125 -9.625 22.453125 -11.125 C 22.453125 -12.695312 22.253906 -14.117188 21.859375 -15.390625 C 21.460938 -16.660156 20.898438 -17.742188 20.171875 -18.640625 C 19.441406 -19.546875 18.550781 -20.238281 17.5 -20.71875 C 16.457031 -21.195312 15.285156 -21.4375 13.984375 -21.4375 C 12.679688 -21.4375 11.507812 -21.195312 10.46875 -20.71875 C 9.425781 -20.238281 8.539062 -19.546875 7.8125 -18.640625 C 7.082031 -17.742188 6.519531 -16.660156 6.125 -15.390625 C 5.726562 -14.117188 5.53125 -12.695312 5.53125 -11.125 C 5.53125 -9.625 5.726562 -8.265625 6.125 -7.046875 C 6.519531 -5.835938 7.082031 -4.804688 7.8125 -3.953125 C 8.539062 -3.109375 9.425781 -2.457031 10.46875 -2 C 11.507812 -1.550781 12.679688 -1.328125 13.984375 -1.328125 Z M 13.984375 -1.328125 "/></g></g></g><g fill="#ffffff" fill-opacity="1"><g transform="translate(192.733514, 214.795323)"><g><path d="M 7.6875 -4.703125 C 7.6875 -3.953125 7.722656 -3.335938 7.796875 -2.859375 C 7.878906 -2.390625 8.039062 -2.023438 8.28125 -1.765625 C 8.519531 -1.515625 8.84375 -1.34375 9.25 -1.25 C 9.664062 -1.164062 10.222656 -1.125 10.921875 -1.125 L 10.921875 0 L 1.328125 0 L 1.328125 -1.125 C 2.015625 -1.125 2.570312 -1.164062 3 -1.25 C 3.425781 -1.34375 3.753906 -1.507812 3.984375 -1.75 C 4.222656 -2 4.378906 -2.34375 4.453125 -2.78125 C 4.535156 -3.226562 4.578125 -3.800781 4.578125 -4.5 L 4.578125 -18.28125 C 4.578125 -19.03125 4.53125 -19.625 4.4375 -20.0625 C 4.351562 -20.507812 4.195312 -20.847656 3.96875 -21.078125 C 3.75 -21.316406 3.453125 -21.472656 3.078125 -21.546875 C 2.703125 -21.617188 2.21875 -21.65625 1.625 -21.65625 L 1.625 -22.78125 L 10.625 -22.78125 L 10.625 -21.65625 C 10.03125 -21.65625 9.546875 -21.613281 9.171875 -21.53125 C 8.796875 -21.457031 8.492188 -21.289062 8.265625 -21.03125 C 8.035156 -20.769531 7.878906 -20.40625 7.796875 -19.9375 C 7.722656 -19.476562 7.6875 -18.859375 7.6875 -18.078125 L 7.6875 -10.765625 L 15.078125 -19.671875 C 15.472656 -20.160156 15.671875 -20.546875 15.671875 -20.828125 C 15.671875 -21.378906 15.109375 -21.65625 13.984375 -21.65625 L 13.984375 -22.78125 L 21.125 -22.78125 L 21.125 -21.6875 C 20.726562 -21.6875 20.378906 -21.660156 20.078125 -21.609375 C 19.785156 -21.554688 19.492188 -21.453125 19.203125 -21.296875 C 18.921875 -21.140625 18.617188 -20.910156 18.296875 -20.609375 C 17.984375 -20.316406 17.625 -19.9375 17.21875 -19.46875 L 11.65625 -13.046875 L 20.296875 -2.65625 C 20.785156 -2.082031 21.242188 -1.679688 21.671875 -1.453125 C 22.109375 -1.234375 22.691406 -1.125 23.421875 -1.125 L 23.421875 0 L 14.34375 0 L 14.34375 -1.125 C 15.113281 -1.125 15.664062 -1.1875 16 -1.3125 C 16.332031 -1.445312 16.5 -1.648438 16.5 -1.921875 C 16.5 -2.078125 16.421875 -2.300781 16.265625 -2.59375 C 16.109375 -2.894531 15.851562 -3.265625 15.5 -3.703125 L 9.734375 -10.796875 L 7.6875 -8.4375 Z M 7.6875 -4.703125 "/></g></g></g><g fill="#ffffff" fill-opacity="1"><g transform="translate(218.790412, 214.795323)"><g><path d="M 7.6875 -12.515625 C 8.75 -12.515625 9.640625 -12.578125 10.359375 -12.703125 C 11.085938 -12.828125 11.660156 -13.023438 12.078125 -13.296875 C 12.503906 -13.578125 12.8125 -13.9375 13 -14.375 C 13.1875 -14.8125 13.28125 -15.320312 13.28125 -15.90625 L 14.3125 -15.90625 L 14.3125 -7.84375 L 13.28125 -7.84375 C 13.28125 -8.425781 13.195312 -8.9375 13.03125 -9.375 C 12.863281 -9.8125 12.566406 -10.171875 12.140625 -10.453125 C 11.710938 -10.742188 11.140625 -10.960938 10.421875 -11.109375 C 9.703125 -11.253906 8.789062 -11.328125 7.6875 -11.328125 L 7.6875 -4.640625 C 7.6875 -3.992188 7.765625 -3.457031 7.921875 -3.03125 C 8.078125 -2.601562 8.347656 -2.253906 8.734375 -1.984375 C 9.117188 -1.722656 9.625 -1.535156 10.25 -1.421875 C 10.882812 -1.316406 11.664062 -1.265625 12.59375 -1.265625 C 13.644531 -1.265625 14.535156 -1.335938 15.265625 -1.484375 C 15.992188 -1.640625 16.601562 -1.894531 17.09375 -2.25 C 17.582031 -2.601562 17.972656 -3.070312 18.265625 -3.65625 C 18.566406 -4.238281 18.816406 -4.960938 19.015625 -5.828125 L 20.140625 -5.828125 L 19.703125 0 L 1.328125 0 L 1.328125 -1.125 C 2.015625 -1.144531 2.570312 -1.203125 3 -1.296875 C 3.425781 -1.398438 3.753906 -1.566406 3.984375 -1.796875 C 4.222656 -2.035156 4.378906 -2.367188 4.453125 -2.796875 C 4.535156 -3.234375 4.578125 -3.800781 4.578125 -4.5 L 4.578125 -18.28125 C 4.578125 -18.96875 4.539062 -19.523438 4.46875 -19.953125 C 4.40625 -20.378906 4.269531 -20.710938 4.0625 -20.953125 C 3.851562 -21.203125 3.550781 -21.367188 3.15625 -21.453125 C 2.769531 -21.546875 2.257812 -21.613281 1.625 -21.65625 L 1.625 -22.78125 L 18.71875 -22.78125 L 18.984375 -17.5625 L 17.953125 -17.5625 C 17.835938 -18.351562 17.644531 -19 17.375 -19.5 C 17.113281 -20.007812 16.75 -20.410156 16.28125 -20.703125 C 15.820312 -20.992188 15.234375 -21.195312 14.515625 -21.3125 C 13.804688 -21.4375 12.953125 -21.5 11.953125 -21.5 L 8.1875 -21.5 C 7.851562 -21.5 7.6875 -21.332031 7.6875 -21 Z M 7.6875 -12.515625 "/></g></g></g><g fill="#ffffff" fill-opacity="1"><g transform="translate(243.279772, 214.795323)"><g><path d="M 20.53125 0.296875 L 6.484375 -18.21875 L 6.359375 -18.21875 L 6.359375 -5.59375 C 6.359375 -4.601562 6.390625 -3.820312 6.453125 -3.25 C 6.523438 -2.675781 6.664062 -2.234375 6.875 -1.921875 C 7.082031 -1.609375 7.378906 -1.398438 7.765625 -1.296875 C 8.148438 -1.203125 8.65625 -1.144531 9.28125 -1.125 L 9.28125 0 L 1.328125 0 L 1.328125 -1.125 C 2.015625 -1.144531 2.570312 -1.207031 3 -1.3125 C 3.425781 -1.425781 3.753906 -1.628906 3.984375 -1.921875 C 4.222656 -2.210938 4.378906 -2.628906 4.453125 -3.171875 C 4.535156 -3.722656 4.578125 -4.460938 4.578125 -5.390625 L 4.578125 -17.390625 C 4.578125 -18.222656 4.539062 -18.910156 4.46875 -19.453125 C 4.40625 -19.992188 4.269531 -20.421875 4.0625 -20.734375 C 3.851562 -21.046875 3.550781 -21.265625 3.15625 -21.390625 C 2.769531 -21.523438 2.257812 -21.613281 1.625 -21.65625 L 1.625 -22.78125 L 7.484375 -22.78125 L 20.40625 -5.53125 L 20.53125 -5.53125 L 20.53125 -17.1875 C 20.53125 -18.15625 20.492188 -18.925781 20.421875 -19.5 C 20.347656 -20.082031 20.207031 -20.53125 20 -20.84375 C 19.800781 -21.164062 19.507812 -21.375 19.125 -21.46875 C 18.738281 -21.570312 18.226562 -21.632812 17.59375 -21.65625 L 17.59375 -22.78125 L 25.5625 -22.78125 L 25.5625 -21.65625 C 24.863281 -21.632812 24.300781 -21.566406 23.875 -21.453125 C 23.457031 -21.347656 23.128906 -21.144531 22.890625 -20.84375 C 22.648438 -20.550781 22.488281 -20.128906 22.40625 -19.578125 C 22.332031 -19.023438 22.296875 -18.296875 22.296875 -17.390625 L 22.296875 0.296875 Z M 20.53125 0.296875 "/></g></g></g><g fill="#ffffff" fill-opacity="1"><g transform="translate(107.541278, 229.718698)"><g><path d="M 2.5 -4.9375 L 3.03125 -4.9375 L 5.25 0 L 4.65625 0 L 4.09375 -1.296875 L 1.421875 -1.296875 L 0.84375 0 L 0.265625 0 Z M 3.875 -1.796875 L 2.765625 -4.296875 L 1.640625 -1.796875 Z M 3.875 -1.796875 "/></g></g></g><g fill="#ffffff" fill-opacity="1"><g transform="translate(113.785321, 229.718698)"><g/></g></g><g fill="#ffffff" fill-opacity="1"><g transform="translate(116.599334, 229.718698)"><g><path d="M 0.6875 -4.90625 L 2.53125 -4.90625 C 2.800781 -4.90625 3.050781 -4.867188 3.28125 -4.796875 C 3.507812 -4.722656 3.703125 -4.617188 3.859375 -4.484375 C 4.023438 -4.347656 4.148438 -4.179688 4.234375 -3.984375 C 4.316406 -3.796875 4.359375 -3.582031 4.359375 -3.34375 L 4.359375 -3.328125 C 4.359375 -3.066406 4.304688 -2.835938 4.203125 -2.640625 C 4.097656 -2.441406 3.957031 -2.273438 3.78125 -2.140625 C 3.613281 -2.003906 3.410156 -1.898438 3.171875 -1.828125 C 2.941406 -1.765625 2.695312 -1.734375 2.4375 -1.734375 L 1.25 -1.734375 L 1.25 0 L 0.6875 0 Z M 2.453125 -2.234375 C 2.660156 -2.234375 2.84375 -2.257812 3 -2.3125 C 3.164062 -2.363281 3.304688 -2.4375 3.421875 -2.53125 C 3.546875 -2.625 3.640625 -2.734375 3.703125 -2.859375 C 3.765625 -2.992188 3.796875 -3.144531 3.796875 -3.3125 L 3.796875 -3.328125 C 3.796875 -3.671875 3.675781 -3.929688 3.4375 -4.109375 C 3.195312 -4.296875 2.878906 -4.390625 2.484375 -4.390625 L 1.25 -4.390625 L 1.25 -2.234375 Z M 2.453125 -2.234375 "/></g></g></g><g fill="#ffffff" fill-opacity="1"><g transform="translate(121.989366, 229.718698)"><g><path d="M 0.6875 -4.90625 L 1.25 -4.90625 L 1.25 -0.515625 L 4 -0.515625 L 4 0 L 0.6875 0 Z M 0.6875 -4.90625 "/></g></g></g><g fill="#ffffff" fill-opacity="1"><g transform="translate(127.008396, 229.718698)"><g><path d="M 2.5 -4.9375 L 3.03125 -4.9375 L 5.25 0 L 4.65625 0 L 4.09375 -1.296875 L 1.421875 -1.296875 L 0.84375 0 L 0.265625 0 Z M 3.875 -1.796875 L 2.765625 -4.296875 L 1.640625 -1.796875 Z M 3.875 -1.796875 "/></g></g></g><g fill="#ffffff" fill-opacity="1"><g transform="translate(133.252438, 229.718698)"><g><path d="M 2.9375 0.078125 C 2.582031 0.078125 2.253906 0.015625 1.953125 -0.109375 C 1.648438 -0.242188 1.390625 -0.421875 1.171875 -0.640625 C 0.953125 -0.867188 0.78125 -1.132812 0.65625 -1.4375 C 0.53125 -1.75 0.46875 -2.082031 0.46875 -2.4375 L 0.46875 -2.453125 C 0.46875 -2.796875 0.53125 -3.117188 0.65625 -3.421875 C 0.78125 -3.734375 0.953125 -4.003906 1.171875 -4.234375 C 1.390625 -4.460938 1.648438 -4.644531 1.953125 -4.78125 C 2.265625 -4.914062 2.597656 -4.984375 2.953125 -4.984375 C 3.179688 -4.984375 3.382812 -4.960938 3.5625 -4.921875 C 3.738281 -4.890625 3.90625 -4.835938 4.0625 -4.765625 C 4.21875 -4.703125 4.359375 -4.617188 4.484375 -4.515625 C 4.617188 -4.421875 4.742188 -4.316406 4.859375 -4.203125 L 4.484375 -3.796875 C 4.273438 -3.992188 4.050781 -4.15625 3.8125 -4.28125 C 3.570312 -4.40625 3.285156 -4.46875 2.953125 -4.46875 C 2.679688 -4.46875 2.425781 -4.414062 2.1875 -4.3125 C 1.957031 -4.21875 1.757812 -4.078125 1.59375 -3.890625 C 1.425781 -3.710938 1.289062 -3.5 1.1875 -3.25 C 1.09375 -3.007812 1.046875 -2.75 1.046875 -2.46875 L 1.046875 -2.453125 C 1.046875 -2.160156 1.09375 -1.890625 1.1875 -1.640625 C 1.289062 -1.398438 1.425781 -1.1875 1.59375 -1 C 1.757812 -0.820312 1.957031 -0.679688 2.1875 -0.578125 C 2.425781 -0.472656 2.679688 -0.421875 2.953125 -0.421875 C 3.285156 -0.421875 3.570312 -0.484375 3.8125 -0.609375 C 4.050781 -0.734375 4.289062 -0.910156 4.53125 -1.140625 L 4.890625 -0.78125 C 4.765625 -0.644531 4.632812 -0.523438 4.5 -0.421875 C 4.363281 -0.316406 4.210938 -0.226562 4.046875 -0.15625 C 3.890625 -0.0820312 3.71875 -0.0234375 3.53125 0.015625 C 3.351562 0.0546875 3.15625 0.078125 2.9375 0.078125 Z M 2.9375 0.078125 "/></g></g></g><g fill="#ffffff" fill-opacity="1"><g transform="translate(139.160478, 229.718698)"><g><path d="M 0.6875 -4.90625 L 4.234375 -4.90625 L 4.234375 -4.390625 L 1.25 -4.390625 L 1.25 -2.71875 L 3.921875 -2.71875 L 3.921875 -2.21875 L 1.25 -2.21875 L 1.25 -0.5 L 4.265625 -0.5 L 4.265625 0 L 0.6875 0 Z M 0.6875 -4.90625 "/></g></g></g><g fill="#ffffff" fill-opacity="1"><g transform="translate(144.56451, 229.718698)"><g/></g></g><g fill="#ffffff" fill-opacity="1"><g transform="translate(147.378524, 229.718698)"><g><path d="M 0.6875 -4.90625 L 4.21875 -4.90625 L 4.21875 -4.390625 L 1.25 -4.390625 L 1.25 -2.640625 L 3.90625 -2.640625 L 3.90625 -2.140625 L 1.25 -2.140625 L 1.25 0 L 0.6875 0 Z M 0.6875 -4.90625 "/></g></g></g><g fill="#ffffff" fill-opacity="1"><g transform="translate(152.684557, 229.718698)"><g><path d="M 2.96875 0.078125 C 2.59375 0.078125 2.25 0.0078125 1.9375 -0.125 C 1.632812 -0.257812 1.375 -0.441406 1.15625 -0.671875 C 0.9375 -0.898438 0.765625 -1.164062 0.640625 -1.46875 C 0.523438 -1.78125 0.46875 -2.101562 0.46875 -2.4375 L 0.46875 -2.453125 C 0.46875 -2.785156 0.53125 -3.101562 0.65625 -3.40625 C 0.78125 -3.71875 0.953125 -3.988281 1.171875 -4.21875 C 1.390625 -4.457031 1.648438 -4.644531 1.953125 -4.78125 C 2.265625 -4.914062 2.609375 -4.984375 2.984375 -4.984375 C 3.359375 -4.984375 3.695312 -4.914062 4 -4.78125 C 4.300781 -4.644531 4.5625 -4.460938 4.78125 -4.234375 C 5 -4.003906 5.164062 -3.734375 5.28125 -3.421875 C 5.40625 -3.117188 5.46875 -2.800781 5.46875 -2.46875 L 5.46875 -2.453125 C 5.46875 -2.117188 5.40625 -1.796875 5.28125 -1.484375 C 5.164062 -1.171875 5 -0.898438 4.78125 -0.671875 C 4.5625 -0.441406 4.296875 -0.257812 3.984375 -0.125 C 3.679688 0.0078125 3.34375 0.078125 2.96875 0.078125 Z M 2.984375 -0.421875 C 3.265625 -0.421875 3.519531 -0.472656 3.75 -0.578125 C 3.988281 -0.679688 4.191406 -0.820312 4.359375 -1 C 4.523438 -1.1875 4.65625 -1.398438 4.75 -1.640625 C 4.851562 -1.890625 4.90625 -2.15625 4.90625 -2.4375 L 4.90625 -2.453125 C 4.90625 -2.734375 4.851562 -2.992188 4.75 -3.234375 C 4.65625 -3.484375 4.519531 -3.695312 4.34375 -3.875 C 4.175781 -4.0625 3.972656 -4.207031 3.734375 -4.3125 C 3.503906 -4.414062 3.25 -4.46875 2.96875 -4.46875 C 2.6875 -4.46875 2.425781 -4.414062 2.1875 -4.3125 C 1.957031 -4.207031 1.757812 -4.0625 1.59375 -3.875 C 1.425781 -3.695312 1.289062 -3.488281 1.1875 -3.25 C 1.09375 -3.007812 1.046875 -2.75 1.046875 -2.46875 L 1.046875 -2.453125 C 1.046875 -2.171875 1.09375 -1.90625 1.1875 -1.65625 C 1.289062 -1.414062 1.425781 -1.203125 1.59375 -1.015625 C 1.769531 -0.835938 1.972656 -0.691406 2.203125 -0.578125 C 2.441406 -0.472656 2.703125 -0.421875 2.984375 -0.421875 Z M 2.984375 -0.421875 "/></g></g></g><g fill="#ffffff" fill-opacity="1"><g transform="translate(159.3486, 229.718698)"><g><path d="M 0.6875 -4.90625 L 2.796875 -4.90625 C 3.097656 -4.90625 3.367188 -4.859375 3.609375 -4.765625 C 3.847656 -4.679688 4.039062 -4.5625 4.1875 -4.40625 C 4.3125 -4.289062 4.40625 -4.148438 4.46875 -3.984375 C 4.539062 -3.816406 4.578125 -3.632812 4.578125 -3.4375 C 4.578125 -3.226562 4.539062 -3.039062 4.46875 -2.875 C 4.40625 -2.71875 4.3125 -2.578125 4.1875 -2.453125 C 4.070312 -2.335938 3.929688 -2.238281 3.765625 -2.15625 C 3.609375 -2.082031 3.429688 -2.03125 3.234375 -2 L 4.75 0 L 4.0625 0 L 2.640625 -1.90625 L 1.25 -1.90625 L 1.25 0 L 0.6875 0 Z M 2.75 -2.40625 C 2.9375 -2.40625 3.101562 -2.425781 3.25 -2.46875 C 3.40625 -2.519531 3.539062 -2.585938 3.65625 -2.671875 C 3.769531 -2.753906 3.859375 -2.859375 3.921875 -2.984375 C 3.984375 -3.109375 4.015625 -3.25 4.015625 -3.40625 L 4.015625 -3.421875 C 4.015625 -3.722656 3.90625 -3.957031 3.6875 -4.125 C 3.46875 -4.300781 3.160156 -4.390625 2.765625 -4.390625 L 1.25 -4.390625 L 1.25 -2.40625 Z M 2.75 -2.40625 "/></g></g></g><g fill="#ffffff" fill-opacity="1"><g transform="translate(165.123633, 229.718698)"><g/></g></g><g fill="#ffffff" fill-opacity="1"><g transform="translate(167.937645, 229.718698)"><g><path d="M 1.96875 -4.390625 L 0.3125 -4.390625 L 0.3125 -4.90625 L 4.171875 -4.90625 L 4.171875 -4.390625 L 2.515625 -4.390625 L 2.515625 0 L 1.96875 0 Z M 1.96875 -4.390625 "/></g></g></g><g fill="#ffffff" fill-opacity="1"><g transform="translate(173.138673, 229.718698)"><g><path d="M 0.6875 -4.90625 L 1.25 -4.90625 L 1.25 -2.71875 L 4.078125 -2.71875 L 4.078125 -4.90625 L 4.625 -4.90625 L 4.625 0 L 4.078125 0 L 4.078125 -2.203125 L 1.25 -2.203125 L 1.25 0 L 0.6875 0 Z M 0.6875 -4.90625 "/></g></g></g><g fill="#ffffff" fill-opacity="1"><g transform="translate(179.172715, 229.718698)"><g><path d="M 0.6875 -4.90625 L 4.234375 -4.90625 L 4.234375 -4.390625 L 1.25 -4.390625 L 1.25 -2.71875 L 3.921875 -2.71875 L 3.921875 -2.21875 L 1.25 -2.21875 L 1.25 -0.5 L 4.265625 -0.5 L 4.265625 0 L 0.6875 0 Z M 0.6875 -4.90625 "/></g></g></g><g fill="#ffffff" fill-opacity="1"><g transform="translate(184.576752, 229.718698)"><g/></g></g><g fill="#ffffff" fill-opacity="1"><g transform="translate(187.390764, 229.718698)"><g><path d="M 2.5 -4.9375 L 3.03125 -4.9375 L 5.25 0 L 4.65625 0 L 4.09375 -1.296875 L 1.421875 -1.296875 L 0.84375 0 L 0.265625 0 Z M 3.875 -1.796875 L 2.765625 -4.296875 L 1.640625 -1.796875 Z M 3.875 -1.796875 "/></g></g></g><g fill="#ffffff" fill-opacity="1"><g transform="translate(193.634806, 229.718698)"><g><path d="M 0.6875 -4.90625 L 1.25 -4.90625 L 1.25 -0.515625 L 4 -0.515625 L 4 0 L 0.6875 0 Z M 0.6875 -4.90625 "/></g></g></g><g fill="#ffffff" fill-opacity="1"><g transform="translate(198.653836, 229.718698)"><g><path d="M 0.6875 -4.90625 L 1.25 -4.90625 L 1.25 -0.515625 L 4 -0.515625 L 4 0 L 0.6875 0 Z M 0.6875 -4.90625 "/></g></g></g><g fill="#ffffff" fill-opacity="1"><g transform="translate(203.672866, 229.718698)"><g/></g></g><g fill="#ffffff" fill-opacity="1"><g transform="translate(206.486878, 229.718698)"><g><path d="M 0.6875 -4.90625 L 2.78125 -4.90625 C 3.0625 -4.90625 3.304688 -4.863281 3.515625 -4.78125 C 3.734375 -4.707031 3.914062 -4.601562 4.0625 -4.46875 C 4.269531 -4.25 4.375 -3.988281 4.375 -3.6875 L 4.375 -3.671875 C 4.375 -3.515625 4.347656 -3.375 4.296875 -3.25 C 4.253906 -3.125 4.195312 -3.015625 4.125 -2.921875 C 4.050781 -2.828125 3.96875 -2.75 3.875 -2.6875 C 3.789062 -2.625 3.695312 -2.570312 3.59375 -2.53125 C 3.738281 -2.488281 3.875 -2.429688 4 -2.359375 C 4.132812 -2.296875 4.25 -2.21875 4.34375 -2.125 C 4.4375 -2.03125 4.507812 -1.921875 4.5625 -1.796875 C 4.613281 -1.671875 4.640625 -1.519531 4.640625 -1.34375 C 4.640625 -1.125 4.597656 -0.929688 4.515625 -0.765625 C 4.429688 -0.609375 4.3125 -0.472656 4.15625 -0.359375 C 4 -0.242188 3.8125 -0.15625 3.59375 -0.09375 C 3.375 -0.03125 3.132812 0 2.875 0 L 0.6875 0 Z M 3.8125 -3.609375 C 3.8125 -3.847656 3.71875 -4.039062 3.53125 -4.1875 C 3.34375 -4.332031 3.078125 -4.40625 2.734375 -4.40625 L 1.234375 -4.40625 L 1.234375 -2.71875 L 2.6875 -2.71875 C 3.019531 -2.71875 3.289062 -2.789062 3.5 -2.9375 C 3.707031 -3.082031 3.8125 -3.300781 3.8125 -3.59375 Z M 4.09375 -1.390625 C 4.09375 -1.648438 3.984375 -1.851562 3.765625 -2 C 3.546875 -2.144531 3.21875 -2.21875 2.78125 -2.21875 L 1.234375 -2.21875 L 1.234375 -0.5 L 2.890625 -0.5 C 3.253906 -0.5 3.546875 -0.570312 3.765625 -0.71875 C 3.984375 -0.875 4.09375 -1.09375 4.09375 -1.375 Z M 4.09375 -1.390625 "/></g></g></g><g fill="#ffffff" fill-opacity="1"><g transform="translate(212.254915, 229.718698)"><g><path d="M 2.96875 0.078125 C 2.59375 0.078125 2.25 0.0078125 1.9375 -0.125 C 1.632812 -0.257812 1.375 -0.441406 1.15625 -0.671875 C 0.9375 -0.898438 0.765625 -1.164062 0.640625 -1.46875 C 0.523438 -1.78125 0.46875 -2.101562 0.46875 -2.4375 L 0.46875 -2.453125 C 0.46875 -2.785156 0.53125 -3.101562 0.65625 -3.40625 C 0.78125 -3.71875 0.953125 -3.988281 1.171875 -4.21875 C 1.390625 -4.457031 1.648438 -4.644531 1.953125 -4.78125 C 2.265625 -4.914062 2.609375 -4.984375 2.984375 -4.984375 C 3.359375 -4.984375 3.695312 -4.914062 4 -4.78125 C 4.300781 -4.644531 4.5625 -4.460938 4.78125 -4.234375 C 5 -4.003906 5.164062 -3.734375 5.28125 -3.421875 C 5.40625 -3.117188 5.46875 -2.800781 5.46875 -2.46875 L 5.46875 -2.453125 C 5.46875 -2.117188 5.40625 -1.796875 5.28125 -1.484375 C 5.164062 -1.171875 5 -0.898438 4.78125 -0.671875 C 4.5625 -0.441406 4.296875 -0.257812 3.984375 -0.125 C 3.679688 0.0078125 3.34375 0.078125 2.96875 0.078125 Z M 2.984375 -0.421875 C 3.265625 -0.421875 3.519531 -0.472656 3.75 -0.578125 C 3.988281 -0.679688 4.191406 -0.820312 4.359375 -1 C 4.523438 -1.1875 4.65625 -1.398438 4.75 -1.640625 C 4.851562 -1.890625 4.90625 -2.15625 4.90625 -2.4375 L 4.90625 -2.453125 C 4.90625 -2.734375 4.851562 -2.992188 4.75 -3.234375 C 4.65625 -3.484375 4.519531 -3.695312 4.34375 -3.875 C 4.175781 -4.0625 3.972656 -4.207031 3.734375 -4.3125 C 3.503906 -4.414062 3.25 -4.46875 2.96875 -4.46875 C 2.6875 -4.46875 2.425781 -4.414062 2.1875 -4.3125 C 1.957031 -4.207031 1.757812 -4.0625 1.59375 -3.875 C 1.425781 -3.695312 1.289062 -3.488281 1.1875 -3.25 C 1.09375 -3.007812 1.046875 -2.75 1.046875 -2.46875 L 1.046875 -2.453125 C 1.046875 -2.171875 1.09375 -1.90625 1.1875 -1.65625 C 1.289062 -1.414062 1.425781 -1.203125 1.59375 -1.015625 C 1.769531 -0.835938 1.972656 -0.691406 2.203125 -0.578125 C 2.441406 -0.472656 2.703125 -0.421875 2.984375 -0.421875 Z M 2.984375 -0.421875 "/></g></g></g><g fill="#ffffff" fill-opacity="1"><g transform="translate(218.918958, 229.718698)"><g><path d="M 2.96875 0.078125 C 2.59375 0.078125 2.25 0.0078125 1.9375 -0.125 C 1.632812 -0.257812 1.375 -0.441406 1.15625 -0.671875 C 0.9375 -0.898438 0.765625 -1.164062 0.640625 -1.46875 C 0.523438 -1.78125 0.46875 -2.101562 0.46875 -2.4375 L 0.46875 -2.453125 C 0.46875 -2.785156 0.53125 -3.101562 0.65625 -3.40625 C 0.78125 -3.71875 0.953125 -3.988281 1.171875 -4.21875 C 1.390625 -4.457031 1.648438 -4.644531 1.953125 -4.78125 C 2.265625 -4.914062 2.609375 -4.984375 2.984375 -4.984375 C 3.359375 -4.984375 3.695312 -4.914062 4 -4.78125 C 4.300781 -4.644531 4.5625 -4.460938 4.78125 -4.234375 C 5 -4.003906 5.164062 -3.734375 5.28125 -3.421875 C 5.40625 -3.117188 5.46875 -2.800781 5.46875 -2.46875 L 5.46875 -2.453125 C 5.46875 -2.117188 5.40625 -1.796875 5.28125 -1.484375 C 5.164062 -1.171875 5 -0.898438 4.78125 -0.671875 C 4.5625 -0.441406 4.296875 -0.257812 3.984375 -0.125 C 3.679688 0.0078125 3.34375 0.078125 2.96875 0.078125 Z M 2.984375 -0.421875 C 3.265625 -0.421875 3.519531 -0.472656 3.75 -0.578125 C 3.988281 -0.679688 4.191406 -0.820312 4.359375 -1 C 4.523438 -1.1875 4.65625 -1.398438 4.75 -1.640625 C 4.851562 -1.890625 4.90625 -2.15625 4.90625 -2.4375 L 4.90625 -2.453125 C 4.90625 -2.734375 4.851562 -2.992188 4.75 -3.234375 C 4.65625 -3.484375 4.519531 -3.695312 4.34375 -3.875 C 4.175781 -4.0625 3.972656 -4.207031 3.734375 -4.3125 C 3.503906 -4.414062 3.25 -4.46875 2.96875 -4.46875 C 2.6875 -4.46875 2.425781 -4.414062 2.1875 -4.3125 C 1.957031 -4.207031 1.757812 -4.0625 1.59375 -3.875 C 1.425781 -3.695312 1.289062 -3.488281 1.1875 -3.25 C 1.09375 -3.007812 1.046875 -2.75 1.046875 -2.46875 L 1.046875 -2.453125 C 1.046875 -2.171875 1.09375 -1.90625 1.1875 -1.65625 C 1.289062 -1.414062 1.425781 -1.203125 1.59375 -1.015625 C 1.769531 -0.835938 1.972656 -0.691406 2.203125 -0.578125 C 2.441406 -0.472656 2.703125 -0.421875 2.984375 -0.421875 Z M 2.984375 -0.421875 "/></g></g></g><g fill="#ffffff" fill-opacity="1"><g transform="translate(225.583002, 229.718698)"><g><path d="M 0.6875 -4.90625 L 1.25 -4.90625 L 1.25 -1.96875 L 4.0625 -4.90625 L 4.78125 -4.90625 L 2.671875 -2.765625 L 4.859375 0 L 4.171875 0 L 2.28125 -2.375 L 1.25 -1.3125 L 1.25 0 L 0.6875 0 Z M 0.6875 -4.90625 "/></g></g></g><g fill="#ffffff" fill-opacity="1"><g transform="translate(231.330041, 229.718698)"><g/></g></g><g fill="#ffffff" fill-opacity="1"><g transform="translate(234.144053, 229.718698)"><g><path d="M 0.6875 -4.90625 L 1.25 -4.90625 L 1.25 -0.515625 L 4 -0.515625 L 4 0 L 0.6875 0 Z M 0.6875 -4.90625 "/></g></g></g><g fill="#ffffff" fill-opacity="1"><g transform="translate(239.163083, 229.718698)"><g><path d="M 2.96875 0.078125 C 2.59375 0.078125 2.25 0.0078125 1.9375 -0.125 C 1.632812 -0.257812 1.375 -0.441406 1.15625 -0.671875 C 0.9375 -0.898438 0.765625 -1.164062 0.640625 -1.46875 C 0.523438 -1.78125 0.46875 -2.101562 0.46875 -2.4375 L 0.46875 -2.453125 C 0.46875 -2.785156 0.53125 -3.101562 0.65625 -3.40625 C 0.78125 -3.71875 0.953125 -3.988281 1.171875 -4.21875 C 1.390625 -4.457031 1.648438 -4.644531 1.953125 -4.78125 C 2.265625 -4.914062 2.609375 -4.984375 2.984375 -4.984375 C 3.359375 -4.984375 3.695312 -4.914062 4 -4.78125 C 4.300781 -4.644531 4.5625 -4.460938 4.78125 -4.234375 C 5 -4.003906 5.164062 -3.734375 5.28125 -3.421875 C 5.40625 -3.117188 5.46875 -2.800781 5.46875 -2.46875 L 5.46875 -2.453125 C 5.46875 -2.117188 5.40625 -1.796875 5.28125 -1.484375 C 5.164062 -1.171875 5 -0.898438 4.78125 -0.671875 C 4.5625 -0.441406 4.296875 -0.257812 3.984375 -0.125 C 3.679688 0.0078125 3.34375 0.078125 2.96875 0.078125 Z M 2.984375 -0.421875 C 3.265625 -0.421875 3.519531 -0.472656 3.75 -0.578125 C 3.988281 -0.679688 4.191406 -0.820312 4.359375 -1 C 4.523438 -1.1875 4.65625 -1.398438 4.75 -1.640625 C 4.851562 -1.890625 4.90625 -2.15625 4.90625 -2.4375 L 4.90625 -2.453125 C 4.90625 -2.734375 4.851562 -2.992188 4.75 -3.234375 C 4.65625 -3.484375 4.519531 -3.695312 4.34375 -3.875 C 4.175781 -4.0625 3.972656 -4.207031 3.734375 -4.3125 C 3.503906 -4.414062 3.25 -4.46875 2.96875 -4.46875 C 2.6875 -4.46875 2.425781 -4.414062 2.1875 -4.3125 C 1.957031 -4.207031 1.757812 -4.0625 1.59375 -3.875 C 1.425781 -3.695312 1.289062 -3.488281 1.1875 -3.25 C 1.09375 -3.007812 1.046875 -2.75 1.046875 -2.46875 L 1.046875 -2.453125 C 1.046875 -2.171875 1.09375 -1.90625 1.1875 -1.65625 C 1.289062 -1.414062 1.425781 -1.203125 1.59375 -1.015625 C 1.769531 -0.835938 1.972656 -0.691406 2.203125 -0.578125 C 2.441406 -0.472656 2.703125 -0.421875 2.984375 -0.421875 Z M 2.984375 -0.421875 "/></g></g></g><g fill="#ffffff" fill-opacity="1"><g transform="translate(245.827126, 229.718698)"><g><path d="M 0.265625 -4.90625 L 0.890625 -4.90625 L 2.625 -0.671875 L 4.375 -4.90625 L 4.984375 -4.90625 L 2.875 0.03125 L 2.375 0.03125 Z M 0.265625 -4.90625 "/></g></g></g><g fill="#ffffff" fill-opacity="1"><g transform="translate(251.791162, 229.718698)"><g><path d="M 0.6875 -4.90625 L 4.234375 -4.90625 L 4.234375 -4.390625 L 1.25 -4.390625 L 1.25 -2.71875 L 3.921875 -2.71875 L 3.921875 -2.21875 L 1.25 -2.21875 L 1.25 -0.5 L 4.265625 -0.5 L 4.265625 0 L 0.6875 0 Z M 0.6875 -4.90625 "/></g></g></g><g fill="#ffffff" fill-opacity="1"><g transform="translate(257.195194, 229.718698)"><g><path d="M 0.6875 -4.90625 L 2.796875 -4.90625 C 3.097656 -4.90625 3.367188 -4.859375 3.609375 -4.765625 C 3.847656 -4.679688 4.039062 -4.5625 4.1875 -4.40625 C 4.3125 -4.289062 4.40625 -4.148438 4.46875 -3.984375 C 4.539062 -3.816406 4.578125 -3.632812 4.578125 -3.4375 C 4.578125 -3.226562 4.539062 -3.039062 4.46875 -2.875 C 4.40625 -2.71875 4.3125 -2.578125 4.1875 -2.453125 C 4.070312 -2.335938 3.929688 -2.238281 3.765625 -2.15625 C 3.609375 -2.082031 3.429688 -2.03125 3.234375 -2 L 4.75 0 L 4.0625 0 L 2.640625 -1.90625 L 1.25 -1.90625 L 1.25 0 L 0.6875 0 Z M 2.75 -2.40625 C 2.9375 -2.40625 3.101562 -2.425781 3.25 -2.46875 C 3.40625 -2.519531 3.539062 -2.585938 3.65625 -2.671875 C 3.769531 -2.753906 3.859375 -2.859375 3.921875 -2.984375 C 3.984375 -3.109375 4.015625 -3.25 4.015625 -3.40625 L 4.015625 -3.421875 C 4.015625 -3.722656 3.90625 -3.957031 3.6875 -4.125 C 3.46875 -4.300781 3.160156 -4.390625 2.765625 -4.390625 L 1.25 -4.390625 L 1.25 -2.40625 Z M 2.75 -2.40625 "/></g></g></g><g fill="#ffffff" fill-opacity="1"><g transform="translate(262.970227, 229.718698)"><g><path d="M 2.375 0.0625 C 1.976562 0.0625 1.617188 0 1.296875 -0.125 C 0.972656 -0.25 0.664062 -0.445312 0.375 -0.71875 L 0.71875 -1.125 C 0.96875 -0.882812 1.222656 -0.707031 1.484375 -0.59375 C 1.753906 -0.476562 2.054688 -0.421875 2.390625 -0.421875 C 2.722656 -0.421875 2.988281 -0.5 3.1875 -0.65625 C 3.382812 -0.8125 3.484375 -1.015625 3.484375 -1.265625 L 3.484375 -1.28125 C 3.484375 -1.382812 3.460938 -1.484375 3.421875 -1.578125 C 3.390625 -1.671875 3.328125 -1.753906 3.234375 -1.828125 C 3.140625 -1.898438 3.007812 -1.96875 2.84375 -2.03125 C 2.675781 -2.09375 2.46875 -2.148438 2.21875 -2.203125 C 1.9375 -2.265625 1.691406 -2.332031 1.484375 -2.40625 C 1.273438 -2.488281 1.101562 -2.585938 0.96875 -2.703125 C 0.832031 -2.816406 0.726562 -2.945312 0.65625 -3.09375 C 0.59375 -3.238281 0.5625 -3.414062 0.5625 -3.625 L 0.5625 -3.640625 C 0.5625 -3.828125 0.601562 -4 0.6875 -4.15625 C 0.769531 -4.320312 0.878906 -4.460938 1.015625 -4.578125 C 1.160156 -4.703125 1.332031 -4.796875 1.53125 -4.859375 C 1.726562 -4.929688 1.941406 -4.96875 2.171875 -4.96875 C 2.535156 -4.96875 2.847656 -4.914062 3.109375 -4.8125 C 3.378906 -4.71875 3.644531 -4.570312 3.90625 -4.375 L 3.578125 -3.9375 C 3.347656 -4.125 3.117188 -4.257812 2.890625 -4.34375 C 2.660156 -4.425781 2.414062 -4.46875 2.15625 -4.46875 C 1.84375 -4.46875 1.59375 -4.390625 1.40625 -4.234375 C 1.21875 -4.085938 1.125 -3.90625 1.125 -3.6875 L 1.125 -3.671875 C 1.125 -3.554688 1.140625 -3.453125 1.171875 -3.359375 C 1.210938 -3.265625 1.28125 -3.175781 1.375 -3.09375 C 1.476562 -3.019531 1.613281 -2.953125 1.78125 -2.890625 C 1.957031 -2.828125 2.179688 -2.769531 2.453125 -2.71875 C 2.992188 -2.59375 3.394531 -2.421875 3.65625 -2.203125 C 3.914062 -1.992188 4.046875 -1.703125 4.046875 -1.328125 L 4.046875 -1.3125 C 4.046875 -1.101562 4.003906 -0.910156 3.921875 -0.734375 C 3.835938 -0.566406 3.722656 -0.421875 3.578125 -0.296875 C 3.429688 -0.179688 3.253906 -0.09375 3.046875 -0.03125 C 2.835938 0.03125 2.613281 0.0625 2.375 0.0625 Z M 2.375 0.0625 "/></g></g></g></svg>